<svg width="308" height="307" viewBox="0 0 308 307" fill="none" xmlns="http://www.w3.org/2000/svg">
<path d="M45.1046 140.956C-15.038 178.968 -15.0317 240.479 45.1046 278.491C105.241 316.503 202.753 316.503 262.895 278.491C323.038 240.479 323.032 178.968 262.895 140.956C202.759 102.944 105.247 102.978 45.1046 140.956Z" fill="#FAFAFA"/>
<path d="M271.085 29.2694C270.119 28.8813 269.099 28.6756 268.071 28.6612C267.091 28.5782 266.807 28.364 266.592 28.1359C265.655 26.6689 264.288 25.5955 262.717 25.0929C261.147 24.5902 259.467 24.6885 257.954 25.3714C257.379 22.8142 254.555 20.5957 251.439 21.3421C251.547 18.0178 247.648 14.4308 244.185 13.6429C240.849 12.8619 237.936 13.1868 236.028 15.5919C233.987 11.2309 225.987 10.0076 221.659 12.309C219.169 13.636 217.059 14.9975 216.029 17.4925C215.344 19.0359 215.021 20.741 215.087 22.4548C213.4 20.8307 210.032 20.3814 207.77 21.3421C205.344 22.3719 205.154 24.3693 205.034 26.4081C203.592 25.9542 202.067 25.9232 200.611 26.3182C199.075 26.8159 198.197 28.129 198.406 29.1933C197.192 29.1173 194.311 30.1886 194.614 31.5916C194.987 33.1604 198.285 32.9738 199.511 32.9738C200.671 32.8697 201.822 32.671 202.955 32.3795C203.53 32.6126 204.137 32.7387 204.75 32.7527C206.847 32.7527 207.732 31.7505 208.073 30.9004C209.097 33.2572 212.737 35.0472 215.315 35.7383C220.168 37.1206 227.03 36.2705 230.012 32.2827C230.367 33.0285 230.86 33.6852 231.459 34.211C232.745 35.3386 234.305 36.0283 235.946 36.1945C237.936 36.4018 243.282 36.6783 244.792 33.2157C245.86 35.5172 250.618 36.5677 254.232 35.9802C255.636 35.7461 257.002 35.2946 258.289 34.6395C259.091 34.1811 259.868 33.6711 260.614 33.1121C261.328 32.6421 261.651 32.649 262.605 32.9669C265.088 33.7824 267.969 34.1211 270.503 32.9669C272.557 32.0615 272.98 30.2093 271.085 29.2694Z" fill="#F5F5F5"/>
<path d="M195.745 49.3673C195.042 49.0795 194.297 48.9298 193.546 48.925C192.839 48.8628 192.611 48.7108 192.472 48.538C191.79 47.4597 190.791 46.6698 189.641 46.3C188.491 45.9302 187.26 46.0029 186.153 46.5061C185.844 45.4527 185.183 44.5653 184.303 44.0199C183.422 43.4745 182.387 43.311 181.402 43.5619C181.484 41.1429 178.653 38.5373 176.113 37.9499C173.68 37.3832 171.551 37.6181 170.16 39.3736C168.694 36.1944 162.85 35.3236 159.69 36.9823C157.877 37.943 156.335 38.9382 155.583 40.7559C155.084 41.8826 154.848 43.1266 154.894 44.3774C153.668 43.1886 151.204 42.8707 149.561 43.5619C147.785 44.3152 147.665 45.7735 147.564 47.2594C146.514 46.9289 145.402 46.9074 144.342 47.1972C143.223 47.5566 142.579 48.5173 142.737 49.2706C141.852 49.2153 139.748 49.9963 139.988 51.0191C140.26 52.1595 142.661 52.0489 143.558 52.0075C144.41 51.938 145.255 51.7947 146.086 51.579C146.504 51.7518 146.947 51.843 147.394 51.8485C148.923 51.8485 149.567 51.1574 149.814 50.4662C150.559 52.1872 153.22 53.4934 155.096 54.0187C158.635 55.007 163.639 54.4057 165.838 51.5168C166.098 52.0531 166.457 52.524 166.894 52.899C167.831 53.7236 168.969 54.2284 170.167 54.3504C171.62 54.4955 175.519 54.7029 176.612 52.1733C177.395 53.8528 180.864 54.6199 183.506 54.2467C184.527 54.0733 185.52 53.7429 186.457 53.2653C187.042 52.9298 187.609 52.5583 188.156 52.1526C188.366 51.9938 188.611 51.8997 188.866 51.8803C189.121 51.8608 189.375 51.9167 189.603 52.042C191.417 52.6433 193.521 52.8852 195.366 52.042C196.826 51.4062 197.129 50.0516 195.745 49.3673Z" fill="#F5F5F5"/>
<path d="M20.3727 162.775C24.3472 171.158 33.2568 175.699 36.5426 196.475C37.5206 202.389 37.8915 208.405 37.6483 214.409L45.1551 209.675C46.5389 201.382 47.7964 187.117 44.0367 172.278C40.7762 159.368 33.1178 152.443 28.1132 151.116C22.5021 149.644 16.2023 153.956 20.3727 162.775Z" fill="#BA68C8"/>
<path opacity="0.5" d="M20.3727 162.775C24.3472 171.158 33.2568 175.699 36.5426 196.475C37.5206 202.389 37.8915 208.405 37.6483 214.409L45.1551 209.675C46.5389 201.382 47.7964 187.117 44.0367 172.278C40.7762 159.368 33.1178 152.443 28.1132 151.116C22.5021 149.644 16.2023 153.956 20.3727 162.775Z" fill="white"/>
<path d="M40.6624 210.871C40.5745 210.852 40.4966 210.797 40.4448 210.717C40.393 210.638 40.3714 210.539 40.3844 210.442C45.4394 186.432 35.481 164.136 26.7989 156.009C26.7666 155.978 26.7408 155.939 26.7231 155.896C26.7054 155.854 26.6962 155.807 26.6962 155.76C26.6962 155.713 26.7054 155.666 26.7231 155.623C26.7408 155.581 26.7666 155.542 26.7989 155.511C26.8696 155.446 26.9591 155.41 27.0517 155.41C27.1442 155.41 27.2337 155.446 27.3044 155.511C36.1129 163.805 46.223 186.342 41.111 210.615C41.099 210.665 41.0774 210.712 41.0477 210.753C41.018 210.794 40.9809 210.828 40.9386 210.852C40.8963 210.876 40.8499 210.89 40.8023 210.893C40.7548 210.896 40.7071 210.889 40.6624 210.871Z" fill="white"/>
<path d="M28.1764 199.619C33.0482 205.245 35.7085 210.297 36.7384 214.976L41.3133 212.087C42.6908 195.687 33.7307 184.387 29.3075 180.986C24.3599 177.213 16.9984 174.96 15.0459 180.184C13.0934 185.409 21.9398 192.452 28.1764 199.619Z" fill="#BA68C8"/>
<path opacity="0.65" d="M28.1764 199.619C33.0482 205.245 35.7085 210.297 36.7384 214.976L41.3133 212.087C42.6908 195.687 33.7307 184.387 29.3075 180.986C24.3599 177.213 16.9984 174.96 15.0459 180.184C13.0934 185.409 21.9398 192.452 28.1764 199.619Z" fill="white"/>
<path d="M39.3292 212.73C39.251 212.713 39.1803 212.667 39.1287 212.601C39.0771 212.534 39.0475 212.451 39.0448 212.363C39.2913 200.352 26.6915 183.336 20.398 180.108C20.3574 180.09 20.3205 180.064 20.2897 180.029C20.2589 179.995 20.2348 179.955 20.2188 179.91C20.2028 179.865 20.1954 179.818 20.1968 179.77C20.1983 179.722 20.2087 179.675 20.2274 179.631C20.2779 179.548 20.3548 179.488 20.4434 179.462C20.5319 179.437 20.626 179.448 20.7076 179.493C27.2981 182.907 40.0116 199.93 39.7588 212.419C39.7558 212.466 39.7439 212.512 39.7238 212.554C39.7037 212.597 39.6759 212.634 39.6421 212.664C39.6083 212.693 39.5692 212.715 39.5274 212.728C39.4855 212.74 39.4417 212.743 39.3987 212.737L39.3292 212.73Z" fill="white"/>
<path d="M244.116 214.859C269.127 214.859 289.403 202.054 289.403 186.26C289.403 170.465 269.127 157.661 244.116 157.661C219.105 157.661 198.829 170.465 198.829 186.26C198.829 202.054 219.105 214.859 244.116 214.859Z" fill="#EBEBEB"/>
<path d="M139.982 284.649C179.835 284.649 212.143 264.248 212.143 239.083C212.143 213.917 179.835 193.516 139.982 193.516C100.128 193.516 67.8208 213.917 67.8208 239.083C67.8208 264.248 100.128 284.649 139.982 284.649Z" fill="#EBEBEB"/>
<path d="M71.6247 255.421C96.4196 255.421 116.52 242.728 116.52 227.071C116.52 211.413 96.4196 198.721 71.6247 198.721C46.8297 198.721 26.7294 211.413 26.7294 227.071C26.7294 242.728 46.8297 255.421 71.6247 255.421Z" fill="#EBEBEB"/>
<path d="M202.5 142.939C202.01 144.88 201.148 146.685 199.971 148.234C198.795 149.783 197.33 151.041 195.676 151.924C195.583 151.968 195.505 152.042 195.452 152.136C195.399 152.23 195.373 152.339 195.379 152.449C195.386 152.562 195.424 152.669 195.489 152.756C195.553 152.844 195.64 152.908 195.739 152.94C200.794 154.509 208.471 150.964 212.654 145.172C219.735 145.265 226.593 142.462 231.881 137.311C237.17 132.16 240.508 125.034 241.242 117.33C241.975 109.627 240.05 101.901 235.844 95.6695C231.639 89.4378 225.456 85.1497 218.51 83.6461C211.563 82.1426 204.353 83.5322 198.295 87.5424C192.237 91.5525 187.767 97.8939 185.762 105.322C183.757 112.751 184.363 120.731 187.459 127.696C190.556 134.662 195.92 140.111 202.5 142.974V142.939ZM187.866 126.034C185.494 120.083 184.949 113.451 186.314 107.133C187.679 100.814 190.88 95.1501 195.437 90.9894C199.993 86.8287 205.66 84.3957 211.588 84.0552C217.515 83.7146 223.384 85.4849 228.314 89.1006C233.244 92.7163 236.97 97.9826 238.933 104.11C240.895 110.237 240.989 116.895 239.2 123.085C237.411 129.276 233.836 134.665 229.01 138.445C224.184 142.225 218.368 144.193 212.433 144.052C212.355 144.05 212.278 144.068 212.207 144.105C212.137 144.143 212.076 144.198 212.029 144.266C208.522 149.263 202.014 152.657 197.344 152.138C200.45 149.999 202.677 146.624 203.555 142.725C203.577 142.599 203.558 142.469 203.501 142.357C203.445 142.245 203.354 142.158 203.246 142.11C199.825 140.7 196.7 138.549 194.057 135.787C191.415 133.025 189.309 129.708 187.866 126.034Z" fill="#BA68C8"/>
<path d="M203.246 142.11C203.355 142.158 203.445 142.245 203.501 142.357C203.558 142.469 203.577 142.599 203.555 142.725C202.674 146.619 200.448 149.988 197.344 152.125C202.014 152.643 208.522 149.249 212.029 144.253C212.076 144.184 212.137 144.129 212.207 144.091C212.278 144.054 212.355 144.036 212.433 144.038C219.274 144.179 225.914 141.509 231.041 136.555C236.169 131.601 239.411 124.724 240.127 117.282C240.844 109.84 238.982 102.374 234.91 96.3612C230.838 90.3479 224.852 86.2238 218.134 84.8039C211.417 83.384 204.457 84.7715 198.63 88.6923C192.802 92.613 188.532 98.7818 186.661 105.98C184.79 113.178 185.456 120.881 188.527 127.568C191.598 134.255 196.85 139.439 203.246 142.096V142.11Z" fill="white"/>
<path d="M207.909 131.432C204.47 131.437 201.162 129.987 198.678 127.385C196.193 124.784 194.724 121.233 194.579 117.474C194.433 113.716 195.621 110.041 197.895 107.219C200.169 104.397 203.353 102.645 206.78 102.331C210.207 102.017 213.613 103.164 216.285 105.533C218.957 107.902 220.688 111.309 221.116 115.042C221.544 118.774 220.636 122.543 218.582 125.561C216.528 128.578 213.487 130.61 210.095 131.232C209.373 131.363 208.642 131.43 207.909 131.432ZM207.909 102.971C207.208 102.972 206.509 103.035 205.818 103.158C202.574 103.745 199.663 105.68 197.694 108.56C195.725 111.439 194.85 115.04 195.252 118.609C195.655 122.178 197.303 125.438 199.852 127.709C202.401 129.979 205.654 131.084 208.931 130.792C212.208 130.499 215.254 128.833 217.434 126.14C219.613 123.448 220.756 119.938 220.624 116.345C220.492 112.752 219.095 109.354 216.725 106.862C214.356 104.369 211.197 102.975 207.909 102.971Z" fill="#455A64"/>
<path d="M212.901 131.432C209.744 131.418 206.693 130.184 204.287 127.948C201.881 125.712 200.275 122.618 199.752 119.213C199.322 116.366 199.673 113.443 200.761 110.814C201.849 108.186 203.626 105.968 205.865 104.443C208.105 102.918 210.708 102.153 213.345 102.246C215.982 102.338 218.535 103.283 220.681 104.961C222.827 106.64 224.47 108.976 225.403 111.676C226.335 114.375 226.515 117.317 225.92 120.128C225.325 122.939 223.981 125.494 222.059 127.471C220.136 129.447 217.721 130.756 215.119 131.232C214.386 131.364 213.644 131.431 212.901 131.432ZM212.945 102.826C212.236 102.829 211.528 102.894 210.828 103.02C207.603 103.615 204.712 105.551 202.761 108.423C200.809 111.295 199.948 114.881 200.357 118.431C200.766 121.981 202.413 125.221 204.955 127.474C207.496 129.727 210.736 130.818 213.996 130.52C217.256 130.222 220.284 128.558 222.449 125.875C224.613 123.191 225.746 119.697 225.61 116.122C225.475 112.547 224.081 109.168 221.721 106.69C219.361 104.212 216.217 102.828 212.945 102.826Z" fill="#455A64"/>
<path d="M218.487 130.776C215.327 130.769 212.271 129.54 209.86 127.304C207.45 125.069 205.841 121.972 205.318 118.563C204.886 115.714 205.235 112.789 206.322 110.158C207.409 107.526 209.186 105.306 211.426 103.778C213.667 102.25 216.271 101.483 218.91 101.574C221.549 101.665 224.104 102.61 226.253 104.289C228.401 105.968 230.046 108.306 230.979 111.008C231.912 113.709 232.093 116.653 231.497 119.466C230.901 122.279 229.556 124.836 227.632 126.814C225.707 128.791 223.29 130.1 220.686 130.575C219.959 130.71 219.224 130.777 218.487 130.776ZM205.849 118.46C206.264 121.186 207.409 123.716 209.138 125.731C210.867 127.745 213.104 129.155 215.565 129.78C218.026 130.406 220.601 130.22 222.965 129.245C225.33 128.271 227.377 126.552 228.849 124.306C230.32 122.059 231.151 119.387 231.234 116.625C231.318 113.863 230.651 111.135 229.319 108.788C227.986 106.44 226.047 104.576 223.747 103.433C221.447 102.289 218.889 101.917 216.395 102.363C213.051 102.975 210.065 105.012 208.093 108.028C206.12 111.045 205.323 114.794 205.874 118.453L205.849 118.46Z" fill="#455A64"/>
<path d="M208.307 126.788C205.149 126.78 202.095 125.549 199.687 123.314C197.279 121.078 195.672 117.983 195.151 114.576C194.719 111.727 195.068 108.801 196.155 106.17C197.242 103.538 199.019 101.318 201.259 99.7901C203.5 98.2623 206.104 97.4954 208.743 97.5864C211.382 97.6774 213.937 98.6222 216.086 100.301C218.234 101.98 219.879 104.318 220.812 107.02C221.746 109.721 221.926 112.665 221.33 115.478C220.734 118.292 219.389 120.849 217.465 122.826C215.54 124.803 213.123 126.112 210.519 126.587C209.788 126.722 209.048 126.79 208.307 126.788ZM208.345 98.2165C207.64 98.2163 206.936 98.281 206.241 98.41C202.9 99.0184 199.915 101.05 197.941 104.061C195.966 107.071 195.163 110.815 195.707 114.472C196.103 117.106 197.179 119.561 198.809 121.547C200.438 123.534 202.553 124.969 204.905 125.683C207.256 126.397 209.745 126.361 212.078 125.579C214.41 124.796 216.49 123.3 218.071 121.267C219.651 119.233 220.667 116.748 220.999 114.104C221.33 111.46 220.963 108.767 219.94 106.343C218.918 103.92 217.283 101.867 215.228 100.427C213.174 98.9873 210.785 98.2202 208.345 98.2165Z" fill="#455A64"/>
<path d="M210.531 127.32C207.371 127.314 204.315 126.084 201.905 123.849C199.494 121.613 197.885 118.517 197.363 115.108C196.93 112.257 197.28 109.33 198.368 106.697C199.456 104.064 201.233 101.843 203.475 100.314C205.717 98.7858 208.323 98.0189 210.964 98.1106C213.605 98.2022 216.161 99.1482 218.31 100.829C220.459 102.51 222.104 104.85 223.037 107.553C223.971 110.256 224.15 113.202 223.553 116.017C222.955 118.831 221.608 121.389 219.682 123.367C217.756 125.344 215.337 126.653 212.73 127.127C212.003 127.256 211.268 127.32 210.531 127.32ZM210.563 98.7211C208.705 98.721 206.868 99.1633 205.182 100.017C203.495 100.871 201.999 102.116 200.797 103.666C199.594 105.216 198.715 107.034 198.219 108.993C197.723 110.952 197.623 113.005 197.925 115.011C198.329 117.637 199.41 120.083 201.042 122.06C202.673 124.037 204.787 125.462 207.135 126.169C209.482 126.876 211.966 126.834 214.292 126.049C216.619 125.264 218.692 123.768 220.268 121.737C221.843 119.707 222.855 117.226 223.185 114.587C223.514 111.948 223.147 109.262 222.128 106.843C221.108 104.425 219.478 102.376 217.429 100.937C215.38 99.4976 212.998 98.7289 210.563 98.7211Z" fill="#455A64"/>
<path d="M211.252 126.152C209.206 126.148 207.24 125.28 205.766 123.728C204.292 122.176 203.423 120.061 203.341 117.825C203.26 115.588 203.971 113.404 205.328 111.729C206.684 110.053 208.58 109.016 210.619 108.833C212.658 108.651 214.683 109.338 216.27 110.75C217.857 112.163 218.884 114.192 219.135 116.413C219.387 118.634 218.843 120.875 217.619 122.668C216.395 124.461 214.584 125.667 212.566 126.034C212.131 126.111 211.692 126.151 211.252 126.152ZM204.004 118.805C204.244 120.376 204.904 121.833 205.901 122.994C206.898 124.154 208.187 124.965 209.605 125.324C211.023 125.683 212.507 125.574 213.869 125.011C215.23 124.448 216.409 123.456 217.255 122.16C218.101 120.865 218.577 119.324 218.623 117.732C218.669 116.141 218.282 114.57 217.511 113.219C216.741 111.868 215.622 110.797 214.295 110.142C212.968 109.486 211.494 109.276 210.058 109.537C208.132 109.891 206.414 111.065 205.279 112.803C204.145 114.54 203.686 116.699 204.004 118.805Z" fill="#455A64"/>
<path d="M214.853 120.111C212.87 120.102 210.961 119.279 209.505 117.805C208.048 116.332 207.15 114.315 206.986 112.152C206.823 109.99 207.407 107.839 208.622 106.124C209.837 104.409 211.596 103.255 213.552 102.888C215.626 102.517 217.75 103.058 219.46 104.395C221.17 105.731 222.326 107.754 222.676 110.021C223.016 112.289 222.521 114.611 221.299 116.48C220.077 118.35 218.227 119.613 216.155 119.994C215.725 120.071 215.29 120.11 214.853 120.111ZM214.853 103.386C214.445 103.389 214.037 103.426 213.634 103.497C211.772 103.839 210.104 104.954 208.977 106.611C207.849 108.267 207.351 110.335 207.586 112.384C207.82 114.432 208.769 116.303 210.235 117.604C211.701 118.905 213.57 119.536 215.451 119.365C217.332 119.195 219.08 118.236 220.33 116.688C221.58 115.141 222.234 113.125 222.157 111.062C222.08 109 221.277 107.049 219.916 105.619C218.555 104.188 216.741 103.388 214.853 103.386Z" fill="#455A64"/>
<path d="M213.173 121.521C211.12 121.529 209.144 120.668 207.658 119.119C206.172 117.57 205.291 115.453 205.199 113.21C205.107 110.967 205.811 108.772 207.164 107.084C208.518 105.396 210.415 104.345 212.46 104.151C214.506 103.958 216.54 104.636 218.138 106.045C219.737 107.454 220.775 109.484 221.037 111.711C221.298 113.938 220.763 116.189 219.542 117.994C218.322 119.799 216.51 121.019 214.487 121.397C214.053 121.479 213.613 121.521 213.173 121.521ZM213.173 104.796C212.764 104.795 212.356 104.832 211.953 104.907C210.092 105.249 208.423 106.364 207.296 108.021C206.169 109.677 205.67 111.745 205.905 113.794C206.139 115.842 207.089 117.713 208.554 119.014C210.02 120.315 211.889 120.946 213.77 120.775C215.651 120.605 217.399 119.646 218.649 118.098C219.899 116.551 220.553 114.535 220.476 112.473C220.399 110.41 219.596 108.459 218.235 107.029C216.874 105.598 215.06 104.798 213.173 104.796Z" fill="#455A64"/>
<path d="M216.768 116.725C215.317 116.72 213.896 116.28 212.658 115.452C211.421 114.624 210.415 113.441 209.75 112.03C209.085 110.62 208.787 109.037 208.888 107.455C208.989 105.872 209.485 104.35 210.323 103.054C211.235 101.661 212.504 100.595 213.97 99.9896C215.436 99.3846 217.033 99.268 218.559 99.6547C220.086 100.041 221.473 100.914 222.547 102.162C223.62 103.411 224.331 104.979 224.591 106.669C224.932 108.937 224.438 111.26 223.215 113.13C221.993 115 220.142 116.263 218.07 116.642C217.639 116.71 217.203 116.738 216.768 116.725ZM216.768 100.006C215.699 100.006 214.642 100.26 213.671 100.751C212.701 101.242 211.839 101.958 211.147 102.85C210.455 103.742 209.949 104.788 209.664 105.915C209.378 107.042 209.321 108.224 209.495 109.378C209.815 111.486 210.888 113.369 212.477 114.612C214.066 115.855 216.041 116.356 217.969 116.006C219.896 115.656 221.617 114.483 222.753 112.745C223.89 111.007 224.349 108.846 224.028 106.738C223.741 104.861 222.855 103.156 221.529 101.924C220.203 100.692 218.521 100.013 216.781 100.006H216.768Z" fill="#455A64"/>
<path d="M214.089 117.312C212.313 117.307 210.596 116.614 209.241 115.356C207.887 114.099 206.983 112.359 206.69 110.443C206.436 108.78 206.655 107.073 207.318 105.551C207.98 104.029 209.055 102.767 210.395 101.935C211.735 101.103 213.276 100.742 214.811 100.9C216.345 101.058 217.798 101.727 218.972 102.818C220.147 103.909 220.987 105.368 221.379 106.998C221.77 108.628 221.695 110.35 221.162 111.932C220.629 113.513 219.665 114.878 218.4 115.84C217.135 116.802 215.63 117.316 214.089 117.312ZM214.089 101.486C213.703 101.485 213.318 101.522 212.939 101.596C211.121 101.926 209.497 103.033 208.425 104.672C207.352 106.312 206.919 108.35 207.22 110.339C207.438 111.769 208.026 113.101 208.913 114.177C209.8 115.254 210.95 116.031 212.228 116.417C213.505 116.802 214.857 116.78 216.124 116.353C217.39 115.926 218.519 115.112 219.376 114.007C220.234 112.902 220.784 111.551 220.963 110.115C221.142 108.679 220.942 107.216 220.387 105.9C219.831 104.584 218.943 103.47 217.827 102.687C216.711 101.905 215.414 101.488 214.089 101.486Z" fill="#455A64"/>
<path d="M207.284 118.812C205.772 118.811 204.293 118.337 203.02 117.446C201.747 116.555 200.733 115.285 200.099 113.785C199.464 112.284 199.235 110.617 199.438 108.979C199.642 107.341 200.269 105.801 201.246 104.54C202.224 103.28 203.51 102.351 204.955 101.864C206.399 101.376 207.94 101.351 209.397 101.791C210.854 102.23 212.165 103.116 213.177 104.344C214.189 105.572 214.858 107.091 215.106 108.722C215.448 110.99 214.953 113.313 213.731 115.183C212.508 117.052 210.658 118.315 208.585 118.695C208.155 118.775 207.72 118.814 207.284 118.812ZM207.284 102.094C206.877 102.093 206.471 102.13 206.07 102.204C204.2 102.547 202.523 103.667 201.391 105.331C200.258 106.995 199.758 109.073 199.993 111.131C200.229 113.189 201.183 115.067 202.656 116.374C204.128 117.681 206.006 118.314 207.895 118.142C209.785 117.969 211.541 117.005 212.795 115.45C214.05 113.894 214.707 111.869 214.628 109.797C214.548 107.724 213.74 105.766 212.371 104.33C211.003 102.895 209.18 102.093 207.284 102.094Z" fill="#455A64"/>
<path d="M212.648 123.968C209.49 123.956 206.438 122.723 204.032 120.487C201.625 118.251 200.019 115.155 199.499 111.749C199.069 108.897 199.422 105.971 200.513 103.339C201.604 100.706 203.384 98.4874 205.628 96.9621C207.872 95.4367 210.48 94.6735 213.12 94.769C215.761 94.8646 218.317 95.8145 220.464 97.4987C222.611 99.1829 224.253 101.526 225.183 104.231C226.112 106.936 226.288 109.882 225.686 112.696C225.085 115.51 223.734 118.066 221.805 120.04C219.876 122.015 217.454 123.319 214.847 123.788C214.12 123.913 213.384 123.973 212.648 123.968ZM200.011 111.652C200.426 114.381 201.572 116.914 203.303 118.93C205.034 120.947 207.273 122.357 209.737 122.982C212.201 123.607 214.779 123.419 217.145 122.441C219.511 121.464 221.559 119.741 223.03 117.49C224.501 115.24 225.329 112.563 225.409 109.798C225.489 107.033 224.818 104.304 223.48 101.956C222.142 99.6084 220.198 97.7472 217.893 96.6079C215.588 95.4687 213.027 95.1024 210.531 95.5556C207.19 96.1716 204.208 98.2123 202.24 101.23C200.273 104.248 199.48 107.996 200.036 111.652H200.011Z" fill="#455A64"/>
<path d="M217.621 125.095C214.172 125.096 210.856 123.64 208.367 121.03C205.877 118.419 204.406 114.857 204.262 111.088C204.118 107.319 205.311 103.635 207.593 100.807C209.875 97.9779 213.068 96.2235 216.505 95.9103C219.942 95.597 223.356 96.7491 226.034 99.1258C228.713 101.502 230.447 104.919 230.875 108.663C231.304 112.406 230.392 116.185 228.332 119.21C226.271 122.235 223.222 124.272 219.82 124.894C219.094 125.029 218.358 125.096 217.621 125.095ZM217.621 96.4956C216.916 96.4958 216.212 96.5605 215.517 96.6891C212.267 97.2871 209.355 99.2359 207.388 102.128C205.422 105.021 204.553 108.632 204.965 112.209C205.377 115.785 207.037 119.048 209.597 121.317C212.158 123.586 215.422 124.684 218.705 124.382C221.989 124.08 225.039 122.401 227.218 119.697C229.396 116.992 230.534 113.471 230.394 109.87C230.254 106.269 228.847 102.866 226.466 100.374C224.086 97.8811 220.917 96.4916 217.621 96.4956Z" fill="#455A64"/>
<path d="M101.367 17.7136L103.415 18.5637C103.585 18.6394 103.775 18.6439 103.949 18.5764C104.123 18.5088 104.267 18.374 104.356 18.1974L109.658 5.60501C109.689 5.51633 109.704 5.42147 109.7 5.32636C109.697 5.23124 109.675 5.13794 109.638 5.05229C109.6 4.96664 109.546 4.89049 109.48 4.82861C109.414 4.76674 109.336 4.72048 109.253 4.69272L105.38 3.0893C105.303 3.05052 105.219 3.02906 105.135 3.02621C105.05 3.02335 104.966 3.03916 104.887 3.07269C104.808 3.10622 104.736 3.15679 104.675 3.22138C104.614 3.28597 104.566 3.36327 104.533 3.44868L100.868 16.8221C100.839 17.0116 100.873 17.2063 100.965 17.3702C101.057 17.5342 101.2 17.6561 101.367 17.7136Z" fill="#BA68C8"/>
<path d="M100.224 24.4107C100.635 24.588 101.085 24.6278 101.517 24.5249C101.949 24.422 102.343 24.1811 102.649 23.8327C102.956 23.4844 103.161 23.0443 103.238 22.5683C103.315 22.0923 103.262 21.6019 103.084 21.1594C102.906 20.7168 102.612 20.342 102.239 20.0825C101.866 19.8231 101.431 19.6907 100.989 19.7021C100.547 19.7135 100.119 19.8683 99.7572 20.1467C99.3959 20.4252 99.1184 20.8148 98.9598 21.266C98.8537 21.5632 98.8021 21.8804 98.8082 22.1994C98.8143 22.5184 98.8778 22.833 98.9952 23.1251C99.1126 23.4172 99.2815 23.6812 99.4923 23.9017C99.7031 24.1223 99.9516 24.2953 100.224 24.4107Z" fill="#BA68C8"/>
<path d="M109.853 26.6015L111.117 28.2395C111.221 28.3809 111.368 28.4754 111.532 28.5048C111.695 28.5341 111.863 28.4963 112.002 28.3985L121.183 20.9619C121.244 20.9077 121.294 20.8401 121.33 20.7633C121.366 20.6866 121.387 20.6025 121.391 20.5165C121.395 20.4305 121.382 20.3445 121.354 20.2641C121.326 20.1837 121.283 20.1106 121.227 20.0496L118.807 16.9534C118.764 16.8841 118.707 16.8256 118.642 16.7816C118.576 16.7376 118.503 16.7092 118.427 16.6981C118.35 16.687 118.273 16.6936 118.199 16.7173C118.125 16.741 118.057 16.7814 117.998 16.8359L109.822 25.6478C109.714 25.7807 109.657 25.954 109.663 26.1316C109.669 26.3092 109.737 26.4775 109.853 26.6015Z" fill="#BA68C8"/>
<path d="M106.296 31.3357C106.553 31.665 106.894 31.9035 107.276 32.0209C107.657 32.1383 108.062 32.1294 108.438 31.9953C108.815 31.8612 109.147 31.608 109.392 31.2676C109.637 30.9272 109.784 30.5149 109.815 30.083C109.846 29.651 109.759 29.2187 109.566 28.8407C109.372 28.4628 109.08 28.1561 108.727 27.9595C108.374 27.763 107.976 27.6853 107.582 27.7363C107.189 27.7874 106.818 27.9649 106.517 28.2464C106.316 28.4328 106.151 28.6608 106.032 28.9172C105.912 29.1737 105.839 29.4536 105.819 29.7407C105.798 30.0278 105.83 30.3166 105.912 30.5903C105.994 30.8641 106.124 31.1174 106.296 31.3357Z" fill="#BA68C8"/>
<g opacity="0.3">
<path d="M109.853 26.6015L111.117 28.2395C111.221 28.3809 111.368 28.4754 111.532 28.5048C111.695 28.5341 111.863 28.4963 112.002 28.3985L121.183 20.9619C121.244 20.9077 121.294 20.8401 121.33 20.7633C121.366 20.6866 121.387 20.6025 121.391 20.5165C121.395 20.4305 121.382 20.3445 121.354 20.2641C121.326 20.1837 121.283 20.1106 121.227 20.0496L118.807 16.9534C118.764 16.8841 118.707 16.8256 118.642 16.7816C118.576 16.7376 118.503 16.7092 118.427 16.6981C118.35 16.687 118.273 16.6936 118.199 16.7173C118.125 16.741 118.057 16.7814 117.998 16.8359L109.822 25.6478C109.714 25.7807 109.657 25.954 109.663 26.1316C109.669 26.3092 109.737 26.4775 109.853 26.6015Z" fill="white"/>
<path d="M106.296 31.3357C106.553 31.665 106.894 31.9035 107.276 32.0209C107.657 32.1383 108.062 32.1294 108.438 31.9953C108.815 31.8612 109.147 31.608 109.392 31.2676C109.637 30.9272 109.784 30.5149 109.815 30.083C109.846 29.651 109.759 29.2187 109.566 28.8407C109.372 28.4628 109.08 28.1561 108.727 27.9595C108.374 27.763 107.976 27.6853 107.582 27.7363C107.189 27.7874 106.818 27.9649 106.517 28.2464C106.316 28.4328 106.151 28.6608 106.032 28.9172C105.912 29.1737 105.839 29.4536 105.819 29.7407C105.798 30.0278 105.83 30.3166 105.912 30.5903C105.994 30.8641 106.124 31.1174 106.296 31.3357Z" fill="white"/>
</g>
<path d="M45.4204 209.882C45.6669 201.817 45.8059 198.05 46.0523 183.654C45.9955 179.97 45.9891 176.017 46.1029 172.506C46.482 160.688 47.771 157.826 48.5609 153.749C49.3507 149.671 49.8247 142.076 50.4565 116.663C50.5866 106.954 51.6991 97.2905 53.7739 87.8495L86.8403 86.5709C90.7454 102.336 92.9633 137.148 93.3866 153.535C93.6015 161.89 90.0945 204.616 90.3915 208.058C90.6761 210.885 91.8937 213.502 93.8163 215.418C96.6408 218.521 98.6376 219.745 102.145 222.413C101.696 223.864 94.5619 224.092 92.4704 223.104C89.463 221.589 86.5501 219.86 83.7504 217.927C80.869 215.757 80.1676 214.402 80.0097 210.933C80.0097 210.497 79.6748 207.678 79.7001 207.477C79.58 205.452 76.7302 181.256 75.7571 174.393C74.6134 166.348 76.4775 155.373 76.4775 155.373L72.1617 130.243C72.1617 130.243 68.7495 147.162 66.9613 157.46C65.6533 165.028 62.1969 177.033 60.0675 189.135C57.5399 201.451 57.3251 202.529 55.8781 211.334C55.1451 215.778 53.4833 230.685 52.6113 233.754C49.7867 243.713 42.5011 239.103 41.9514 233.685C41.566 230.056 45.3699 211.617 45.4204 209.882Z" fill="#FFBDA7"/>
<path d="M107.876 227.859C108.059 227.859 108.23 230.133 107.174 231.024C105.955 232.054 102.46 233.657 97.9867 232.745C93.513 231.833 91.1498 230.153 89.4311 228.384C87.7123 226.615 85.3049 224.134 83.2892 223.546C81.3935 222.979 78.3984 221.618 77.8234 220.94C77.2484 220.263 77.4758 217.409 77.4758 217.409L107.876 227.859Z" fill="#263238"/>
<path d="M79.7 207.457C79.5177 207.542 79.3544 207.67 79.2213 207.831C79.0883 207.992 78.9886 208.182 78.9291 208.39C78.7459 209.164 78.689 210.173 78.3288 211.451C77.7469 213.698 77.4806 216.028 77.539 218.363C77.7159 219.842 81.76 221.334 83.6935 222.281C85.962 223.542 88.0416 225.173 89.8607 227.119C91.8764 229.193 96.2364 231.356 99.1683 231.577C103.648 231.923 106.618 230.761 107.604 229.047C108.817 226.926 108.381 224.624 103.364 221.687C102.41 221.134 99.0988 218.701 97.9741 217.823C96.7779 216.901 95.6535 215.873 94.6124 214.748C94.0878 214.177 93.5921 213.575 93.1275 212.944C92.6378 212.379 92.2288 211.735 91.9143 211.037C91.8638 210.885 91.8322 210.705 91.7879 210.546C91.6602 210.107 91.5692 209.655 91.5162 209.198C91.4593 208.728 91.4404 208.037 91.0423 207.733C90.6442 207.429 84.1864 208.424 83.6935 209.177C83.3642 209.793 83.1837 210.49 83.169 211.202C83.1375 211.527 83.1311 211.859 83.1122 212.191C83.1122 212.336 83.1438 212.592 82.9669 212.523C82.7899 212.453 82.632 211.949 82.5751 211.776C82.4487 211.396 82.3792 210.995 82.2402 210.622C82.1265 210.172 81.9285 209.753 81.6589 209.392C80.8437 208.549 80.0096 208.652 79.7632 208.362C79.7758 208.341 79.7127 207.74 79.7 207.457Z" fill="#37474F"/>
<path d="M103.636 221.832C97.1337 221.929 95.0295 227.513 94.6062 230.222C96.0511 230.928 97.5885 231.38 99.162 231.563C103.642 231.909 106.795 230.761 107.781 229.047C108.937 227.036 108.141 224.002 103.636 221.832Z" fill="#FAFAFA"/>
<path d="M94.0754 222.62C94.0024 222.616 93.9331 222.584 93.8795 222.53C93.8208 222.463 93.788 222.374 93.788 222.281C93.788 222.189 93.8208 222.099 93.8795 222.032C94.8463 220.878 97.8983 218.445 100.243 218.867C100.284 218.874 100.324 218.89 100.36 218.915C100.395 218.939 100.427 218.97 100.451 219.007C100.476 219.045 100.493 219.087 100.503 219.131C100.513 219.176 100.515 219.223 100.508 219.268C100.501 219.313 100.487 219.357 100.465 219.396C100.443 219.435 100.414 219.469 100.38 219.496C100.346 219.523 100.307 219.542 100.266 219.553C100.225 219.564 100.183 219.565 100.141 219.558C97.9551 219.171 95.0864 221.59 94.3471 222.516C94.3129 222.556 94.2702 222.587 94.2229 222.605C94.1756 222.623 94.125 222.628 94.0754 222.62Z" fill="#F5F5F5"/>
<path d="M91.3709 220.664C91.2963 220.659 91.2253 220.628 91.1687 220.574C91.1114 220.507 91.0796 220.418 91.0796 220.325C91.0796 220.233 91.1114 220.144 91.1687 220.077C92.1355 218.916 95.1875 216.483 97.5318 216.911C97.5732 216.918 97.613 216.935 97.6488 216.959C97.6846 216.983 97.7157 217.014 97.7404 217.052C97.765 217.089 97.7827 217.131 97.7924 217.176C97.8022 217.22 97.8038 217.267 97.7971 217.312C97.7905 217.357 97.7758 217.401 97.7538 217.44C97.7317 217.479 97.7029 217.513 97.6689 217.54C97.6348 217.567 97.5963 217.587 97.5554 217.597C97.5145 217.608 97.4721 217.61 97.4307 217.602C95.2443 217.208 92.3756 219.634 91.6363 220.553C91.603 220.593 91.5617 220.624 91.5156 220.643C91.4695 220.662 91.42 220.67 91.3709 220.664Z" fill="#F5F5F5"/>
<path d="M88.8813 218.473C88.8448 218.473 88.8087 218.465 88.775 218.45C88.7414 218.435 88.7109 218.412 88.6854 218.383C88.655 218.352 88.6308 218.314 88.6143 218.271C88.5978 218.229 88.5892 218.184 88.5892 218.138C88.5892 218.092 88.5978 218.047 88.6143 218.004C88.6308 217.962 88.655 217.924 88.6854 217.893C89.6459 216.731 92.7105 214.299 95.0485 214.727C95.0894 214.734 95.1286 214.749 95.1639 214.773C95.1993 214.797 95.2299 214.828 95.254 214.864C95.2782 214.901 95.2954 214.943 95.3046 214.987C95.3137 215.031 95.3148 215.077 95.3076 215.121C95.3014 215.167 95.287 215.211 95.2651 215.25C95.2433 215.29 95.2144 215.324 95.1803 215.351C95.1461 215.378 95.1074 215.397 95.0663 215.408C95.0252 215.418 94.9826 215.419 94.9411 215.411C92.7548 215.024 89.9176 217.443 89.153 218.363C89.1198 218.404 89.0775 218.436 89.03 218.456C88.9826 218.475 88.9315 218.481 88.8813 218.473Z" fill="#F5F5F5"/>
<path d="M86.4485 216.268C86.3761 216.263 86.3073 216.231 86.2527 216.179C86.2231 216.146 86.1995 216.108 86.1835 216.066C86.1675 216.024 86.1592 215.979 86.1592 215.933C86.1592 215.888 86.1675 215.842 86.1835 215.8C86.1995 215.758 86.2231 215.72 86.2527 215.688C87.5796 214.036 90.8149 212.087 93.1528 212.516C93.1945 212.522 93.2346 212.538 93.2707 212.562C93.3067 212.586 93.3381 212.617 93.3628 212.655C93.3875 212.692 93.4052 212.735 93.4147 212.78C93.4242 212.824 93.4254 212.871 93.4182 212.916C93.4028 213.007 93.3561 213.088 93.2879 213.142C93.2197 213.196 93.1352 213.219 93.0517 213.207C90.9476 212.82 87.9082 214.686 86.7329 216.151C86.6984 216.195 86.6542 216.229 86.6045 216.25C86.5548 216.27 86.5012 216.277 86.4485 216.268Z" fill="#F5F5F5"/>
<path d="M53.6222 234.825C53.2178 238.163 52.5923 240.354 51.3727 242.227C50.1532 244.1 48.068 244.549 46.0397 243.803C44.0113 243.057 41.4648 241.301 41.0731 238.357C40.6813 235.413 40.4412 233.408 41.1489 230.34L53.6222 234.825Z" fill="#263238"/>
<path d="M45.4205 209.882C44.5674 209.882 44.4853 214.347 43.6891 218.812C42.8297 223.601 42.0652 225.46 41.3195 229.386C40.4728 233.865 41.0162 235.938 42.2737 238.799C43.5311 241.66 48.4788 244.736 51.2401 241.045C53.5149 238.025 53.8434 234.487 53.9635 229.953C54.1132 226.155 54.5635 222.379 55.3094 218.667C55.9413 215.045 56.5732 211.755 55.8781 211.313C55.6884 212.533 55.4352 213.739 55.1198 214.928C55.0187 215.169 54.6459 215.771 54.5764 214.817C54.5764 214.534 54.6838 213.891 54.6775 213.614C54.6843 213.367 54.6204 213.124 54.4946 212.918C54.3689 212.712 54.1877 212.555 53.9761 212.467C52.8856 211.778 51.6633 211.375 50.406 211.292C48.7442 211.147 47.3035 210.967 46.343 211.41C45.7617 211.679 45.7111 212.267 45.6353 212.827C45.5152 213.518 45.4773 213.925 45.3383 213.773C45.0476 213.476 45.4773 210.373 45.4205 209.882Z" fill="#37474F"/>
<path d="M40.8962 231.985C40.579 234.392 40.9731 236.847 42.0209 238.993C43.2847 241.847 48.6178 244.999 51.4044 241.287C52.7882 239.442 53.3 237.141 53.616 234.825C52.3206 231.681 43.4616 229.614 40.8962 231.985Z" fill="#FAFAFA"/>
<path d="M52.0994 229.752C52.0636 229.746 52.0292 229.732 51.9983 229.711C51.9604 229.711 48.1438 227.575 44.2388 228.232C44.195 228.246 44.149 228.249 44.1039 228.242C44.0588 228.235 44.0157 228.217 43.9772 228.19C43.9388 228.164 43.906 228.128 43.881 228.086C43.8559 228.045 43.8393 227.998 43.8321 227.949C43.8249 227.899 43.8273 227.849 43.8392 227.801C43.8511 227.753 43.8722 227.708 43.901 227.67C43.9299 227.631 43.9659 227.6 44.0067 227.577C44.0475 227.555 44.0922 227.543 44.1377 227.541C48.2702 226.85 52.1689 229.02 52.3143 229.11C52.3814 229.149 52.4334 229.213 52.4605 229.291C52.4877 229.369 52.4883 229.455 52.4621 229.533C52.436 229.611 52.3849 229.677 52.3182 229.717C52.2516 229.757 52.1739 229.77 52.0994 229.752Z" fill="#F5F5F5"/>
<path d="M44.6874 224.873C44.6272 224.862 44.5713 224.831 44.5264 224.786C44.4816 224.741 44.4497 224.682 44.4347 224.617C44.4153 224.528 44.4282 224.435 44.4706 224.356C44.513 224.278 44.5817 224.22 44.6622 224.196C48.5862 223.09 52.6808 225.578 52.8324 225.682C52.8684 225.705 52.8997 225.736 52.9244 225.773C52.9491 225.81 52.9667 225.852 52.9761 225.896C52.9856 225.941 52.9867 225.987 52.9793 226.032C52.972 226.077 52.9564 226.12 52.9335 226.158C52.8881 226.235 52.8172 226.289 52.7359 226.31C52.6546 226.331 52.5691 226.316 52.4975 226.269C52.4596 226.269 48.4724 223.836 44.8265 224.887C44.7797 224.893 44.7324 224.888 44.6874 224.873Z" fill="#F5F5F5"/>
<path d="M45.0097 221.708C44.9508 221.695 44.8962 221.666 44.8516 221.622C44.8071 221.578 44.7743 221.522 44.7569 221.459C44.7354 221.37 44.7465 221.275 44.7878 221.195C44.8292 221.115 44.8974 221.056 44.9781 221.03C49.3002 219.724 53.1926 222.413 53.3063 222.496C53.3744 222.551 53.4203 222.633 53.4344 222.724C53.4486 222.816 53.4298 222.91 53.3821 222.986C53.3577 223.023 53.3269 223.054 53.2914 223.078C53.2559 223.102 53.2165 223.118 53.1754 223.125C53.1343 223.132 53.0923 223.13 53.0519 223.119C53.0115 223.108 52.9734 223.089 52.9398 223.062C52.9398 223.062 49.1485 220.484 45.1487 221.68C45.1046 221.7 45.0573 221.709 45.0097 221.708Z" fill="#F5F5F5"/>
<path d="M45.4331 218.591C45.375 218.581 45.3208 218.553 45.277 218.51C45.2333 218.467 45.2019 218.411 45.1866 218.349C45.1741 218.305 45.1697 218.258 45.1737 218.213C45.1777 218.167 45.1901 218.122 45.2101 218.082C45.2302 218.041 45.2574 218.005 45.2903 217.976C45.3231 217.947 45.3609 217.926 45.4015 217.913C49.4518 216.621 53.6159 219.372 53.7739 219.489C53.8086 219.515 53.8382 219.548 53.8612 219.586C53.8841 219.624 53.8998 219.667 53.9075 219.712C53.9151 219.757 53.9145 219.803 53.9057 219.848C53.8969 219.893 53.88 219.935 53.8561 219.973C53.8332 220.011 53.8037 220.043 53.7692 220.068C53.7347 220.093 53.696 220.11 53.6554 220.119C53.6148 220.127 53.573 220.126 53.5326 220.117C53.4922 220.107 53.4539 220.089 53.4201 220.063C53.3821 220.063 49.3381 217.381 45.5784 218.584C45.5313 218.6 45.4812 218.602 45.4331 218.591Z" fill="#EBEBEB"/>
<path d="M51.1453 87.9532C50.2291 97.9124 49.8815 100.394 49.2496 122.51C48.6178 143.969 48.6178 147.114 48.5167 149.706C48.2639 155.636 45.9449 157.771 45.6985 171.76C45.471 184.58 45.591 200.372 45.591 200.372C45.591 200.372 47.2403 202.681 51.6887 202.943C55.7959 203.192 57.7864 201.423 57.7864 201.423C57.7864 201.423 64.4148 171.31 66.2915 163.715C68.819 153.41 72.3007 135.379 72.3007 135.379L75.6497 155.725C75.6497 155.725 74.4238 162.561 75.3969 173.695C76.1742 182.555 78.6764 198.23 78.6764 198.23C80.396 199.576 82.4779 200.255 84.5908 200.158C89.6775 199.896 90.9096 198.23 90.9096 198.23C90.9096 198.23 94.1449 164.855 94.1702 152.18C94.2018 138.765 93.4498 106.088 92.1418 86.3981L51.1453 87.9532Z" fill="#455A64"/>
<path d="M72.326 135.358L74.9357 113.062C74.9357 113.062 81.5515 110.864 85.6777 105.777C85.4755 109.461 79.6874 114.396 76.9324 115.239L73.8488 135.026L75.6497 155.725L72.326 135.358Z" fill="#37474F"/>
<path d="M63.1321 90.9251C62.1707 92.8014 61.3954 94.7847 60.8194 96.8412C60.2217 98.8825 59.7301 100.959 59.3471 103.061C58.9743 105.135 58.6773 107.284 58.494 109.42C58.2834 111.552 58.2242 113.698 58.3171 115.84C58.7152 113.767 59.0817 111.652 59.4419 109.565C59.802 107.478 60.1622 105.418 60.554 103.345C60.9457 101.271 61.3249 99.1979 61.7419 97.1245C62.159 95.0512 62.6139 92.9985 63.1321 90.9251Z" fill="#37474F"/>
<path d="M60.6109 91.8029C59.6701 92.827 58.8236 93.9498 58.0834 95.1548C57.3282 96.3513 56.6525 97.6055 56.0613 98.9077C55.4672 100.211 54.9665 101.563 54.5638 102.951C54.1442 104.34 53.8893 105.782 53.8055 107.243L55.4294 103.324C55.9918 102.045 56.5479 100.767 57.1355 99.502C57.7232 98.2373 58.3045 96.9656 58.8858 95.6939C59.4672 94.4222 60.0738 93.1367 60.6109 91.8029Z" fill="#37474F"/>
<path d="M64.6802 116.435C64.0483 123.104 63.5049 129.787 62.9615 136.477C62.418 143.168 61.1732 150.542 60.2697 157.142C59.3661 163.743 55.044 189.708 54.3363 196.357C55.5179 189.777 60.5287 163.957 61.4892 157.308C62.4496 150.659 63.5428 143.223 63.9156 136.526C64.2884 129.829 64.5222 123.139 64.6802 116.435Z" fill="#37474F"/>
<path d="M87.4975 116.144L88.1294 133.651C88.2115 136.567 88.3253 139.477 88.3821 142.393C88.439 145.31 88.5401 148.234 88.439 151.102C88.3379 153.97 87.5796 181.898 87.8071 187.732C88.5654 181.242 89.3552 157.011 89.6522 151.136C89.7596 145.227 89.4247 139.387 89.0709 133.575C88.717 127.762 88.1989 121.936 87.4975 116.144Z" fill="#37474F"/>
<path d="M78.0446 194.857L78.7333 200.967C78.7333 200.967 80.8943 202.619 85.5576 202.287C90.2209 201.955 90.9539 200.338 90.9539 200.338L91.4089 194.622C91.4089 194.622 89.9998 195.763 85.7219 196.108C83.1104 196.299 80.492 195.872 78.0446 194.857Z" fill="#37474F"/>
<path d="M45.5784 196.129L45.3636 202.28C45.3636 202.28 47.2592 204.291 51.9099 204.789C56.5605 205.286 57.5147 203.814 57.5147 203.814L58.551 198.209C58.551 198.209 57.243 199.128 52.9841 198.721C50.3744 198.446 47.8491 197.562 45.5784 196.129Z" fill="#37474F"/>
<path d="M82.0759 40.0371C89.1593 41.5852 91.6553 44.5087 94.8842 49.7129C98.1131 54.9171 109.645 77.3581 109.645 77.3581C109.645 77.3581 108.305 79.1827 104.849 79.1343C101.393 79.086 96.862 75.6165 93.8289 72.9142C90.7959 70.2119 84.0095 60.9714 84.0095 60.9714L82.0759 40.0371Z" fill="#263238"/>
<path d="M50.684 42.6565C50.684 42.6565 47.7521 52.6848 48.959 62.5058C49.7362 68.8572 50.6398 73.5638 50.7978 81.028C50.9494 88.1605 50.2038 99.1149 50.2038 99.1149C57.085 105.086 86.1263 106.593 92.6853 97.007C92.6853 97.007 92.4072 85.707 92.0534 73.6122C91.769 64.593 90.916 57.6402 89.9492 53.3897C88.3821 46.5199 83.9274 41.4332 82.0949 40.0371C77.1217 38.821 72.0123 38.4088 66.9297 38.8138C61.382 39.296 55.9182 40.5884 50.684 42.6565Z" fill="#F5F5F5"/>
<path d="M71.0622 104.257C62.2159 104.257 53.4264 102.37 49.9953 99.4191L49.8626 99.3016V99.1081C49.8626 98.9975 50.6019 88.0915 50.4502 81.0627C50.3234 76.314 49.9012 71.5804 49.1864 66.8945C48.9969 65.5122 48.8073 64.0885 48.6241 62.5749C47.4235 52.7816 50.3301 42.6635 50.3617 42.5667L50.406 42.4008L50.5513 42.3386C55.8055 40.2685 61.2875 38.9694 66.8539 38.4752C71.9786 38.0571 77.1317 38.4717 82.1454 39.7054L82.2592 39.7607C84.1927 41.2328 88.6854 46.4716 90.2462 53.3207C91.3393 58.1171 92.1039 65.5191 92.3566 73.6261C92.7295 85.5757 92.9885 96.9034 92.9885 97.0139V97.1453L92.919 97.242C90.0945 101.389 83.6935 103.068 78.8154 103.759C76.2432 104.104 73.6536 104.27 71.0622 104.257ZM50.5513 98.9491C55.0187 102.626 68.105 104.527 78.7648 103.013C85.3996 102.073 90.2209 99.9029 92.3503 96.8895C92.3187 95.604 92.047 84.8915 91.7184 73.6261C91.472 65.5675 90.7074 58.2277 89.6269 53.4797C88.1293 46.8932 83.8515 41.8479 81.9622 40.3482C77.0319 39.1466 71.967 38.7438 66.9297 39.1525C61.4772 39.6418 56.1068 40.9105 50.9557 42.9261C50.5892 44.2669 48.1944 53.5073 49.2875 62.4574C49.4708 63.9641 49.6604 65.3809 49.8499 66.7632C50.5623 71.4796 50.9845 76.2429 51.1137 81.0212C51.2717 87.5662 50.6461 97.4424 50.5513 98.9491Z" fill="#E0E0E0"/>
<path d="M63.012 6.10258C63.012 6.10258 60.8446 6.01273 59.1259 8.73578C58.2666 10.118 57.4767 12.7029 58.6141 20.5472C59.0401 23.6063 59.8925 26.5758 61.1416 29.3522C61.5081 30.2555 62.1776 30.9705 63.012 31.3496L63.4859 25.4888L63.7134 21.3904C63.7134 21.3904 67.094 18.7917 67.669 15.9028C68.4083 12.1776 67.2583 9.87615 67.2583 9.87615L63.012 6.10258Z" fill="#37474F"/>
<path d="M62.2411 6.2063C63.1195 2.98564 67.4226 -0.449282 74.9736 0.0483318C77.5414 0.178399 80.0307 1.0569 82.1838 2.59286C84.3369 4.12882 86.0755 6.26639 87.2195 8.78422C88.9571 12.8895 85.5829 15.7992 85.5829 15.7992L66.8728 12.4334L62.2411 6.2063Z" fill="#37474F"/>
<path d="M58.2919 26.5808C60.9647 28.4054 62.5129 26.1662 62.5129 26.1662L61.881 40.1754C66.4874 48.6279 81.305 46.3126 75.9783 39.7538L76.1552 36.4225C76.921 36.4791 77.6894 36.4791 78.4553 36.4225C80.9828 36.312 83.207 35.1785 84.2559 32.3656C84.8654 30.5459 85.3243 28.67 85.6271 26.7605C86.0944 24.0173 86.0729 21.2013 85.5639 18.467C85.2164 16.9119 86.0126 15.0113 85.823 13.1245C85.684 11.6801 85.2733 10.0628 84.1359 9.27494C81.2987 7.31214 78.2783 9.27494 73.9057 10.4913C72.0985 11.0028 67.8586 10.7954 66.8097 10.1043C68.0734 12.0118 67.4984 17.4648 65.1099 19.4069C64.7749 19.9533 64.3456 20.4228 63.8461 20.7892C62.8414 21.5287 62.3233 19.2341 61.6409 18.2735C60.9584 17.3128 58.1529 16.2001 56.5858 18.8747C56.2195 19.4983 55.9727 20.1967 55.8602 20.9275C55.7478 21.6584 55.772 22.4067 55.9315 23.127C56.091 23.8474 56.3824 24.5249 56.7881 25.1185C57.1938 25.7122 57.7054 26.2096 58.2919 26.5808Z" fill="#FFBDA7"/>
<path d="M76.1805 36.4225C72.8947 35.994 69.8616 35.1715 68.0039 34.0519C66.1462 32.9323 64.7371 29.9051 64.4717 27.0646C64.2316 29.3038 64.7307 33.3953 67.4984 35.4065C70.266 37.4177 73.9373 37.936 76.0794 38.254L76.1805 36.4225Z" fill="#F0997A"/>
<path d="M74.5881 14.4446L71.6815 15.3569C71.5722 14.9289 71.6217 14.471 71.8193 14.0828C72.0169 13.6946 72.3466 13.4073 72.7367 13.2835C72.928 13.224 73.1282 13.207 73.3256 13.2335C73.523 13.2599 73.7135 13.3293 73.886 13.4375C74.0586 13.5457 74.2095 13.6905 74.3301 13.8634C74.4507 14.0364 74.5384 14.234 74.5881 14.4446Z" fill="#37474F"/>
<path d="M84.7677 16.2761L82.0759 14.7279C82.1639 14.5349 82.2866 14.3632 82.4367 14.2233C82.5868 14.0833 82.7612 13.9779 82.9494 13.9134C83.1376 13.8488 83.3357 13.8265 83.532 13.8477C83.7283 13.8689 83.9186 13.9333 84.0916 14.0368C84.4461 14.2433 84.7141 14.5912 84.84 15.0082C84.9659 15.4253 84.9401 15.8794 84.7677 16.2761Z" fill="#37474F"/>
<path d="M72.4081 17.6514C72.3782 17.9264 72.4244 18.205 72.541 18.451C72.6575 18.6969 72.8389 18.8989 73.0616 19.0307C73.2844 19.1625 73.5382 19.2181 73.7902 19.1902C74.0422 19.1624 74.2807 19.0523 74.4748 18.8744C74.6689 18.6965 74.8096 18.4588 74.8788 18.1924C74.9479 17.9259 74.9423 17.6428 74.8625 17.3799C74.7828 17.1169 74.6327 16.8863 74.4317 16.7178C74.2306 16.5493 73.988 16.4508 73.7351 16.435C73.5748 16.4189 73.4132 16.4376 73.2596 16.4901C73.106 16.5426 72.9634 16.6279 72.84 16.7409C72.7167 16.854 72.615 16.9927 72.5409 17.1489C72.4668 17.3052 72.4216 17.476 72.4081 17.6514Z" fill="#263238"/>
<path d="M81.3366 18.2251C81.3053 18.5002 81.3505 18.7793 81.4661 19.0261C81.5817 19.2728 81.7625 19.4758 81.985 19.6087C82.2075 19.7416 82.4614 19.7982 82.7137 19.7713C82.966 19.7443 83.205 19.635 83.3998 19.4575C83.5945 19.28 83.736 19.0425 83.8057 18.7759C83.8755 18.5094 83.8703 18.226 83.7909 17.9627C83.7115 17.6994 83.5616 17.4682 83.3605 17.2993C83.1595 17.1304 82.9167 17.0316 82.6636 17.0156C82.5038 16.9995 82.3427 17.0179 82.1894 17.07C82.0362 17.1221 81.8939 17.2068 81.7706 17.3191C81.6473 17.4315 81.5455 17.5693 81.4711 17.7248C81.3966 17.8803 81.3509 18.0503 81.3366 18.2251Z" fill="#263238"/>
<path d="M77.1472 15.0597L77.2799 23.5744L81.5767 22.4548C80.6308 19.6549 79.1163 17.1264 77.1472 15.0597Z" fill="#F0997A"/>
<path d="M74.7587 27.2097C74.1269 28.4883 75.3906 29.449 76.3511 28.592C76.983 28.1013 77.3874 26.8019 76.6418 26.2283C76.8909 26.1219 77.1491 26.0431 77.4126 25.9933C77.4126 25.9933 77.4506 25.9933 77.4569 25.9173C77.1469 25.817 76.819 25.8028 76.5027 25.8758C76.1392 25.941 75.7938 26.0948 75.4919 26.3256C75.1901 26.5565 74.9395 26.8587 74.7587 27.2097Z" fill="#B16668"/>
<path d="M51.8278 42.1935C44.9466 44.1356 42.9814 47.8884 41.3764 52.9682C39.0321 60.2043 36.7131 69.9838 36.0181 74.7181C35.323 79.4523 36.0686 84.0207 39.7651 85.1334C43.4616 86.2461 53.5338 66.7562 53.5338 66.7562C53.5338 66.7562 56.7564 49.789 51.8278 42.1935Z" fill="#263238"/>
<path d="M60.5604 37.397C61.8241 35.5586 62.2285 33.9413 63.6187 33.105C65.0088 32.2688 67.2015 30.5202 67.966 30.3405C68.4794 30.2619 69.0023 30.3661 69.4573 30.6377C69.4573 30.6377 70.6136 29.4213 71.2897 29.3176C71.9658 29.214 72.4145 30.4995 71.8395 31.7504C72.5093 32.3724 72.4714 33.3953 71.7763 34.7914C72.2186 35.1508 72.5219 36.1737 71.5109 38.1157C71.0547 38.8925 70.5611 39.6423 70.0323 40.3619C69.2564 41.5659 68.6474 42.8887 68.2251 44.2875C67.7828 45.6698 67.8586 48.3099 65.963 51.3025C64.6303 53.3275 63.0935 55.1822 61.3818 56.8315L55.9666 50.0585C56.0501 47.5752 56.3355 45.105 56.8196 42.6772C57.4315 40.3724 57.8128 38.0018 57.957 35.6069C58.0012 33.8515 59.4799 34.2247 59.9664 35.2821C60.2615 35.9499 60.4618 36.6631 60.5604 37.397Z" fill="#FFA8A7"/>
<path d="M55.9666 50.0724C55.0883 53.0304 48.0428 60.1491 44.6748 63.1555C41.3069 66.1619 40.0874 67.7722 38.7667 70.8823C37.3028 74.8739 36.9446 79.2483 37.7368 83.4609C38.2296 85.6034 42.7918 86.4397 47.8469 82.3413C52.902 78.2429 54.5006 73.4326 57.0092 67.3783C58.9617 62.6579 60.4593 59.9763 61.6093 57.5366C62.0642 56.569 64.1368 54.3228 66.0325 51.3164C67.9281 48.31 67.8523 45.6561 68.2946 44.3015C68.7169 42.9027 69.3259 41.5798 70.1018 40.3758C70.6306 39.6562 71.1242 38.9064 71.5804 38.1297C72.5914 36.1738 72.2881 35.1647 71.8458 34.8053C72.5219 33.4231 72.5788 32.3864 71.909 31.7644C72.484 30.5134 72.0354 29.221 71.3592 29.3316C70.6831 29.4422 69.5268 30.6516 69.5268 30.6516C69.0718 30.38 68.5489 30.2758 68.0355 30.3544C67.271 30.5272 65.0783 32.262 63.6882 33.119C62.298 33.976 61.8873 35.5725 60.6299 37.4109C60.5206 36.67 60.3074 35.952 59.998 35.2822C59.5114 34.2248 58.0328 33.8516 57.9886 35.607C57.8495 38.006 57.4723 40.3813 56.8639 42.6911C56.3798 45.119 56.0943 47.5892 56.0108 50.0724" fill="#FFBDA7"/>
<path d="M61.565 57.5365C63.7766 54.0048 67.0434 50.9638 67.6943 46.5268L67.9786 44.9234C68.0974 44.3872 68.2559 43.8625 68.4525 43.3545C68.8171 42.3301 69.29 41.3559 69.8616 40.4517C70.702 39.1317 72.9578 36.4777 71.7067 34.9227L71.6309 34.8536L71.6751 34.7568C72.0985 33.8722 72.5724 32.5245 71.6751 31.8195C72.0163 31.1284 72.1806 29.9051 71.4792 29.5042C70.7147 29.5042 70.0385 30.3474 69.4699 30.8865L69.3814 30.8312C68.4968 30.2576 67.6184 30.5755 66.8033 31.1699C65.9882 31.7642 65.1731 32.2895 64.3453 32.8424C62.3801 33.7547 61.7293 36.0078 60.4908 37.7287C60.276 36.5745 60.099 34.7914 58.8416 34.5357C57.938 34.4804 58.0391 35.6968 57.9886 36.3948C57.8116 39.3598 56.8828 42.1865 56.4341 45.0823C56.194 46.749 56.0358 48.4285 55.9602 50.1137C56.0118 48.4258 56.1425 46.7418 56.352 45.0685C56.6742 42.5597 57.4325 40.1546 57.6979 37.6388C57.8369 36.7818 57.78 35.9663 57.9254 35.1093C57.9719 34.8825 58.0851 34.6786 58.2476 34.5288C59.8084 33.651 60.4845 36.1944 60.6551 37.4384L60.4718 37.3831C61.5966 35.6968 62.3675 33.4921 64.2189 32.6143C65.034 32.0614 65.8365 31.467 66.6769 30.9211C67.0628 30.5549 67.5411 30.3252 68.0487 30.2623C68.5563 30.1994 69.0694 30.3061 69.5204 30.5686H69.3561C69.8025 30.0797 70.3138 29.6673 70.8726 29.3453C72.2817 28.6541 72.4776 30.9418 71.9468 31.8541L71.9152 31.6882C72.8188 32.5176 72.3449 33.9482 71.8773 34.8951L71.8457 34.7292C73.2991 36.4432 70.9232 39.2008 70.0196 40.6038C68.8818 42.3857 68.1378 44.4322 67.8459 46.5821C67.214 51.0606 63.8398 54.0532 61.5271 57.5572L61.565 57.5365Z" fill="#B16668"/>
<path d="M37.7368 83.4608C38.3686 85.1541 40.4223 85.1472 41.8377 84.9813C46.501 84.1312 50.4313 80.406 52.9019 76.1003C54.6017 73.1699 55.7833 69.9216 57.1355 66.7769C58.4878 63.6323 60.0359 60.5913 61.5587 57.5227C60.0801 60.6051 58.5257 63.6392 57.2366 66.8184C54.627 73.4533 52.3269 79.6527 46.3746 83.5921C44.3273 84.9191 41.8061 85.9005 39.4239 85.1679C39.0305 85.0702 38.6675 84.861 38.3714 84.5614C38.0753 84.2618 37.8564 83.8822 37.7368 83.4608Z" fill="#F28F8F"/>
<path d="M63.012 37.936C63.2915 37.1281 63.6187 36.3409 63.9914 35.5793C65.2552 33.3746 67.53 32.1236 69.4509 30.6584C67.8522 32.5314 65.6596 33.7202 64.2632 35.7659C63.8272 36.457 63.4607 37.2311 62.9994 37.936H63.012Z" fill="#F0997A"/>
<path d="M71.7952 31.6399C70.9295 31.1354 70.424 32.4209 69.8995 32.9738C69.0718 34.0243 68.0987 34.9504 67.2836 35.994C66.5885 37.162 65.8681 38.2955 65.0783 39.4013C65.8934 37.7771 66.6201 35.9871 67.8396 34.6739L69.6657 32.7319C70.2092 32.2135 70.999 30.9142 71.8015 31.6399H71.7952Z" fill="#F0997A"/>
<path d="M71.7763 34.8122C71.0749 34.6532 70.6895 35.5033 70.2914 36.0078C69.135 37.8324 67.5111 39.2008 66.4558 41.1083C66.9395 39.7094 67.7114 38.4512 68.7117 37.4315C69.3553 36.5718 70.052 35.7613 70.7969 35.0057C70.924 34.8705 71.0851 34.7799 71.2596 34.7454C71.4341 34.7109 71.614 34.7342 71.7763 34.8122Z" fill="#F0997A"/>
<path d="M60.5603 37.397C60.0216 39.0621 59.3668 40.6795 58.6015 42.2349C58.9779 40.5046 59.6419 38.8647 60.5603 37.397Z" fill="#F0997A"/>
<path d="M92.8748 35.6554C91.8069 33.8516 91.51 32.3242 90.2588 31.4326C89.0077 30.5411 87.0489 28.7718 86.3475 28.5644C85.8711 28.4508 85.3738 28.5115 84.9321 28.7372C84.9321 28.7372 83.921 27.5208 83.2892 27.355C82.6573 27.1891 82.1707 28.3847 82.6573 29.5942C81.9938 30.1333 81.9938 31.094 82.5435 32.4486C82.1075 32.7527 81.7663 33.6719 82.6067 35.5725C82.9921 36.3313 83.4139 37.0672 83.8705 37.7772C84.5277 38.9559 85.0217 40.2345 85.3365 41.5715C85.6777 42.8708 85.4692 44.7991 87.0678 47.7295C88.0454 49.5097 89.3008 51.0887 90.777 52.3946L97.4812 47.2871C97.4812 47.2871 96.6029 43.6794 96.1037 40.832C95.6723 38.6289 95.4604 36.3811 95.4719 34.128C95.5287 32.4762 94.1196 32.7458 93.5762 33.6857C93.2498 34.2982 93.0131 34.9628 92.8748 35.6554Z" fill="#FFA8A7"/>
<path d="M97.4559 47.3078C98.0878 50.1415 101.449 53.9703 104.407 57.5642C107.136 60.8816 108.438 62.1948 109.5 65.1666C110.561 68.1385 111.136 73.1285 110.087 76.674C109.506 78.6437 105.215 79.1206 100.71 74.9392C96.2048 70.7579 94.979 66.1481 92.9759 60.3149C91.4151 55.7604 91.4783 55.3872 90.5432 53.0235C90.1703 52.0836 88.6475 50.6598 87.0425 47.7225C85.4375 44.7852 85.6524 42.8846 85.3112 41.5646C84.9964 40.2276 84.5024 38.949 83.8452 37.7703C83.3886 37.0603 82.9668 36.3243 82.5814 35.5655C81.741 33.6649 82.0822 32.7457 82.5182 32.4416C81.9685 31.0594 81.9685 30.1263 82.632 29.5873C82.1644 28.3778 82.632 27.2029 83.2639 27.348C83.8958 27.4931 84.9068 28.7303 84.9068 28.7303C85.3485 28.5045 85.8458 28.4438 86.3222 28.5575C87.0236 28.7648 88.9824 30.5341 90.2335 31.4257C91.4847 32.3172 91.7816 33.8446 92.8495 35.6485C92.9857 34.9638 93.2181 34.3064 93.5383 33.6995C94.0501 32.7388 95.4339 32.49 95.4339 34.1418C95.4225 36.3949 95.6343 38.6427 96.0658 40.8458C96.565 43.6932 97.4433 47.3009 97.4433 47.3009" fill="#FFBDA7"/>
<path d="M90.5431 53.0511C90.067 52.2394 89.5279 51.4741 88.9318 50.7635C88.3737 50.0143 87.8506 49.2346 87.3648 48.4274C86.3473 46.8276 85.6971 44.9833 85.4691 43.0505C85.3604 42.1046 85.1483 41.1765 84.8372 40.2859C84.3128 38.3991 83.0364 37.0031 82.3097 35.2199C81.9938 34.3422 81.6336 33.0913 82.4551 32.3863L82.4171 32.5384C82.2029 32.0609 82.0661 31.5465 82.0127 31.0179C81.9764 30.7398 82.0075 30.4562 82.1028 30.1955C82.1982 29.9347 82.3545 29.7059 82.5561 29.5319L82.5182 29.6909C81.9495 28.3086 82.6762 26.3113 84.1674 27.7834C84.4713 28.0524 84.7565 28.3458 85.0205 28.6611H84.8688C85.3061 28.4492 85.7913 28.3853 86.2621 28.4777C86.7328 28.57 87.1675 28.8145 87.5101 29.1795C88.2621 29.7462 88.9761 30.3544 89.7154 30.928C91.4467 31.868 92.0028 33.9414 92.9569 35.6001H92.78C93.0264 34.4597 93.7152 32.2343 95.1369 32.9807C95.6235 33.3885 95.4845 34.1418 95.4971 34.6947C95.5729 38.9659 96.5397 43.1403 97.4559 47.2733C96.4702 43.1265 95.4213 38.9797 95.3391 34.6947C95.3391 34.0036 95.4339 32.9461 94.5872 33.0152C93.4372 33.2364 93.1781 34.8329 92.9253 35.8834C91.8575 34.1902 91.3709 32.0407 89.589 31.0455C88.8497 30.4788 88.123 29.8706 87.3774 29.3177C86.6318 28.7648 85.8356 28.3501 84.9889 28.827L84.9004 28.8754C84.4139 28.3639 83.7757 27.4931 83.0933 27.4931C82.4235 27.8179 82.5056 28.9998 82.7836 29.6425C81.9116 30.2438 82.2781 31.5362 82.6257 32.407C82.6762 32.5384 82.6699 32.49 82.5814 32.5591C81.3809 33.8584 83.1248 36.3603 83.8452 37.5767C84.5553 38.8121 85.0821 40.1627 85.4059 41.5783C85.6903 42.9606 85.7408 44.4534 86.2653 45.8012C86.9526 47.5737 87.8698 49.2287 88.9887 50.7151C89.5707 51.4413 90.095 52.2205 90.5558 53.0442L90.5431 53.0511Z" fill="#B16668"/>
<path d="M110.087 76.7016C108.899 79.6666 104.299 77.9871 102.467 76.6049C97.4812 73.0801 95.1685 67.5787 93.3677 61.6419C92.3566 58.8083 91.5984 55.864 90.5432 53.0511C92.6726 58.6424 94.0311 64.669 96.862 69.9147C99.0293 73.6745 102.378 77.0265 106.46 77.8973C107.724 78.0977 109.455 78.1461 110.094 76.7016H110.087Z" fill="#F28F8F"/>
<path d="M90.5495 36.0148C90.1577 35.3237 89.8734 34.5703 89.5005 33.893C88.2936 31.8887 86.3411 30.6171 84.932 28.7648C86.6381 30.2715 88.6917 31.5846 89.7596 33.741C90.0655 34.4804 90.3293 35.2398 90.5495 36.0148Z" fill="#F0997A"/>
<path d="M82.6825 29.4975C83.4787 28.8685 84.1421 30.1402 84.6287 30.6586L86.2274 32.6075C87.3016 33.9069 87.8639 35.6416 88.54 37.2105C87.8639 36.1254 87.2763 35.0127 86.6444 33.8792C85.9493 32.8425 85.0773 31.9164 84.3759 30.8728C83.9083 30.313 83.5039 29.0828 82.6635 29.4905L82.6825 29.4975Z" fill="#F0997A"/>
<path d="M82.5246 32.4692C82.6816 32.4062 82.8523 32.3961 83.0146 32.4405C83.1768 32.4849 83.3231 32.5816 83.4345 32.7181C84.0852 33.4767 84.6909 34.2801 85.248 35.1232C86.122 36.1502 86.7703 37.3817 87.1437 38.724C86.2653 36.8648 84.8183 35.4757 83.8389 33.6856C83.504 33.1949 83.207 32.3656 82.5183 32.4692H82.5246Z" fill="#F0997A"/>
<path d="M92.8748 35.6554C93.6533 37.0939 94.1804 38.6782 94.4293 40.3274C93.8011 38.8166 93.2814 37.2545 92.8748 35.6554Z" fill="#F0997A"/>
<path d="M277.46 128.626C278.187 139.94 273.941 156.88 273.941 156.88L256.735 149.132L248.002 173.266L226.366 164.565L223.94 169.852L220.698 168.829L216.597 183.723L199.221 178.388C199.221 178.388 206.323 192.963 221.722 199.578C228.45 201.582 235.493 201.988 242.376 200.768C249.26 199.549 255.825 196.732 261.631 192.507C267.437 188.283 272.349 182.748 276.037 176.275C279.726 169.802 282.105 162.541 283.015 154.979C283.691 148.945 282.098 133.934 277.46 128.626Z" fill="#BA68C8"/>
<g style="mix-blend-mode:screen" opacity="0.5">
<path d="M277.46 128.626C278.187 139.94 273.941 156.88 273.941 156.88L256.735 149.132L248.002 173.266L226.366 164.565L223.94 169.852L220.698 168.829L216.597 183.723L199.221 178.388C199.221 178.388 206.323 192.963 221.722 199.578C228.45 201.582 235.493 201.988 242.376 200.768C249.26 199.549 255.825 196.732 261.631 192.507C267.437 188.283 272.349 182.748 276.037 176.275C279.726 169.802 282.105 162.541 283.015 154.979C283.691 148.945 282.098 133.934 277.46 128.626Z" fill="white"/>
</g>
<path d="M221.722 199.598C216.541 192.272 213.47 182.23 212.983 171.815C222.237 175.035 231.842 176.895 241.544 177.344C242.693 173.283 244.071 169.303 245.67 165.429C252.722 168.193 265.038 172.485 265.038 172.485L267.477 168.622C267.477 168.622 269.031 168.947 270.004 169.278C272.475 157.695 272.412 151.689 272.386 140.541C277.441 145.6 280.171 149.277 283.015 154.986C282.105 162.548 279.726 169.809 276.037 176.282C272.349 182.755 267.437 188.29 261.631 192.514C255.825 196.739 249.26 199.556 242.376 200.775C235.493 201.994 228.45 201.589 221.722 199.585V199.598Z" fill="#BA68C8"/>
<path opacity="0.85" d="M221.722 199.598C216.541 192.272 213.47 182.23 212.983 171.815C222.237 175.035 231.842 176.895 241.544 177.344C242.693 173.283 244.071 169.303 245.67 165.429C252.722 168.193 265.038 172.485 265.038 172.485L267.477 168.622C267.477 168.622 269.031 168.947 270.004 169.278C272.475 157.695 272.412 151.689 272.386 140.541C277.441 145.6 280.171 149.277 283.015 154.986C282.105 162.548 279.726 169.809 276.037 176.282C272.349 182.755 267.437 188.29 261.631 192.514C255.825 196.739 249.26 199.556 242.376 200.775C235.493 201.994 228.45 201.589 221.722 199.585V199.598Z" fill="white"/>
<path d="M283.015 155C281.217 151.285 278.971 147.851 276.336 144.792C275.287 151.516 273.941 156.893 273.941 156.893L272.045 156.036C271.661 160.503 270.981 164.933 270.011 169.292C269.037 168.961 267.483 168.636 267.483 168.636L265.044 172.499C265.044 172.499 257.019 169.735 250.214 167.177L248.008 173.28L243.415 171.435C242.736 173.384 242.115 175.358 241.551 177.358C234.057 177.005 226.616 175.81 219.346 173.792L216.604 183.744L214.575 183.122C215.928 189.082 218.36 194.685 221.728 199.598C229.702 201.989 238.102 202.113 246.132 199.958C247.614 199.557 249.089 199.078 250.555 198.52C251.288 198.244 252.021 197.947 252.747 197.629C254.209 196.988 255.65 196.267 257.07 195.465C262.771 192.26 267.835 187.848 271.968 182.487C276.1 177.126 279.219 170.922 281.144 164.233C281.29 163.729 281.429 163.231 281.555 162.72C281.82 161.711 282.054 160.695 282.263 159.665C282.364 159.153 282.465 158.635 282.553 158.117C282.737 157.087 282.888 156.043 283.008 155H283.015Z" fill="#BA68C8"/>
<g style="mix-blend-mode:screen" opacity="0.7">
<path d="M283.015 155C281.217 151.285 278.971 147.851 276.336 144.792C275.287 151.516 273.941 156.893 273.941 156.893L272.045 156.036C271.661 160.503 270.981 164.933 270.011 169.292C269.037 168.961 267.483 168.636 267.483 168.636L265.044 172.499C265.044 172.499 257.019 169.735 250.214 167.177L248.008 173.28L243.415 171.435C242.736 173.384 242.115 175.358 241.551 177.358C234.057 177.005 226.616 175.81 219.346 173.792L216.604 183.744L214.575 183.122C215.928 189.082 218.36 194.685 221.728 199.598C229.702 201.989 238.102 202.113 246.132 199.958C247.614 199.557 249.089 199.078 250.555 198.52C251.288 198.244 252.021 197.947 252.747 197.629C254.209 196.988 255.65 196.267 257.07 195.465C262.771 192.26 267.835 187.848 271.968 182.487C276.1 177.126 279.219 170.922 281.144 164.233C281.29 163.729 281.429 163.231 281.555 162.72C281.82 161.711 282.054 160.695 282.263 159.665C282.364 159.153 282.465 158.635 282.553 158.117C282.737 157.087 282.888 156.043 283.008 155H283.015Z" fill="white"/>
</g>
<path d="M213.103 208.424C211.669 215.505 208.898 222.18 204.969 228.023C201.04 233.865 196.039 238.745 190.286 242.352C156.878 263.445 134.623 237.306 121.158 245.807L111.484 251.917L94.72 220.159L104.394 214.05C117.86 205.542 107.863 171.663 141.271 150.57C149.804 145.158 159.647 142.731 169.478 143.617C167.298 151.06 167.115 156.824 166.824 160.936C170.345 162.199 173.932 163.231 177.566 164.026C176.778 172.817 175.984 181.61 175.184 190.406C182.198 191.726 197.622 196.136 197.622 196.136L196.649 199.308L199.612 200.089L199.17 208.493C199.17 208.493 206.74 210.138 213.103 208.424Z" fill="#BA68C8"/>
<g style="mix-blend-mode:screen" opacity="0.5">
<path d="M213.103 208.424C211.669 215.505 208.898 222.18 204.969 228.023C201.04 233.865 196.039 238.745 190.286 242.352C156.878 263.445 134.623 237.306 121.158 245.807L111.484 251.917L94.72 220.159L104.394 214.05C117.86 205.542 107.863 171.663 141.271 150.57C149.804 145.158 159.647 142.731 169.478 143.617C167.298 151.06 167.115 156.824 166.824 160.936C170.345 162.199 173.932 163.231 177.566 164.026C176.778 172.817 175.984 181.61 175.184 190.406C182.198 191.726 197.622 196.136 197.622 196.136L196.649 199.308L199.612 200.089L199.17 208.493C199.17 208.493 206.74 210.138 213.103 208.424Z" fill="white"/>
</g>
<path d="M213.103 208.424C211.669 215.505 208.898 222.18 204.969 228.023C201.04 233.865 196.039 238.745 190.286 242.352C156.878 263.445 134.623 237.306 121.158 245.807L111.484 251.917L94.72 220.159L104.394 214.05C117.86 205.542 107.863 171.663 141.271 150.57C149.804 145.158 159.647 142.731 169.478 143.617C164.423 146.996 161.175 150.162 156.796 155.912C166.976 155.352 172.454 155 183.139 157.149C182.887 158.22 182.665 159.914 182.665 159.914L186.305 162.402C186.305 162.402 183 176.045 180.789 183.882C184.401 185.443 188.098 186.759 191.859 187.821C191.907 198.439 190.662 209.017 188.156 219.275C197.641 218.273 206.664 214.437 213.103 208.424Z" fill="#BA68C8"/>
<path opacity="0.85" d="M213.103 208.424C211.669 215.505 208.898 222.18 204.969 228.023C201.04 233.865 196.039 238.745 190.286 242.352C156.878 263.445 134.623 237.306 121.158 245.807L111.484 251.917L94.72 220.159L104.394 214.05C117.86 205.542 107.863 171.663 141.271 150.57C149.804 145.158 159.647 142.731 169.478 143.617C164.423 146.996 161.175 150.162 156.796 155.912C166.976 155.352 172.454 155 183.139 157.149C182.887 158.22 182.665 159.914 182.665 159.914L186.305 162.402C186.305 162.402 183 176.045 180.789 183.882C184.401 185.443 188.098 186.759 191.859 187.821C191.907 198.439 190.662 209.017 188.156 219.275C197.641 218.273 206.664 214.437 213.103 208.424Z" fill="white"/>
<path d="M188.156 219.295C190.134 211.186 191.329 202.873 191.72 194.491C186.602 193.109 179.392 191.194 175.196 190.406C175.993 181.615 176.787 172.822 177.579 164.026C173.945 163.231 170.358 162.199 166.837 160.936C166.95 159.361 167.045 157.543 167.241 155.483C164.082 155.483 160.815 155.691 156.809 155.912C161.188 150.162 164.391 146.996 169.491 143.617C159.66 142.731 149.817 145.158 141.283 150.57C107.876 171.663 117.904 205.542 104.407 214.05L94.7325 220.159L111.496 251.917L121.145 245.807C134.611 237.306 156.866 263.445 190.273 242.352C196.026 238.745 201.028 233.865 204.957 228.023C208.886 222.18 211.656 215.505 213.09 208.424C206.664 214.437 197.641 218.273 188.156 219.295Z" fill="#BA68C8"/>
<g style="mix-blend-mode:screen" opacity="0.7">
<path d="M188.156 219.295C190.134 211.186 191.329 202.873 191.72 194.491C186.602 193.109 179.392 191.194 175.196 190.406C175.993 181.615 176.787 172.822 177.579 164.026C173.945 163.231 170.358 162.199 166.837 160.936C166.95 159.361 167.045 157.543 167.241 155.483C164.082 155.483 160.815 155.691 156.809 155.912C161.188 150.162 164.391 146.996 169.491 143.617C159.66 142.731 149.817 145.158 141.283 150.57C107.876 171.663 117.904 205.542 104.407 214.05L94.7325 220.159L111.496 251.917L121.145 245.807C134.611 237.306 156.866 263.445 190.273 242.352C196.026 238.745 201.028 233.865 204.957 228.023C208.886 222.18 211.656 215.505 213.09 208.424C206.664 214.437 197.641 218.273 188.156 219.295Z" fill="white"/>
</g>
<path opacity="0.15" d="M104.394 214.05L94.72 220.16L98.4418 227.209C103.194 222.862 108.451 217.92 110.637 215.391C115.06 210.29 112.925 196.834 116.059 184.587C112.084 197.739 111.572 209.488 104.394 214.05Z" fill="#BA68C8"/>
<path opacity="0.15" d="M108.128 245.558L111.509 251.896L121.145 245.807C128.203 241.349 137.682 246.409 149.909 249.201C138.838 246.008 129.36 237.555 123.218 239.207C120.128 240.029 113.601 242.573 107.794 244.93L108.128 245.558Z" fill="#BA68C8"/>
<path d="M101.121 232.088C101.041 232.089 100.962 232.069 100.89 232.029C100.819 231.99 100.757 231.932 100.71 231.86C100.633 231.74 100.603 231.591 100.625 231.446C100.648 231.302 100.721 231.172 100.83 231.086L117.803 217.955C120.784 215.641 123.27 212.646 125.088 209.177L134.522 191.167C135.099 190.063 135.916 189.132 136.9 188.456C137.884 187.78 139.006 187.379 140.165 187.289C142.756 187.089 144.803 187.4 146.275 188.229L146.572 188.091C150.686 186.363 156.385 186.273 159.696 189.307C160.559 189.025 161.443 188.831 162.338 188.727C163.805 188.501 165.3 188.619 166.723 189.072C168.214 189.559 169.471 190.666 170.224 192.155C170.285 192.286 170.296 192.438 170.254 192.578C170.213 192.718 170.122 192.834 170.002 192.901C169.883 192.968 169.743 192.98 169.615 192.935C169.487 192.89 169.381 192.79 169.32 192.659C168.693 191.43 167.649 190.519 166.413 190.123C165.126 189.721 163.776 189.619 162.451 189.826C161.812 189.904 161.179 190.031 160.556 190.206C161.793 191.757 162.483 193.739 162.502 195.797C162.523 196.983 162.203 198.146 161.586 199.121C161.103 199.791 160.467 200.309 159.743 200.624C159.018 200.938 158.231 201.037 157.46 200.911C156.639 200.784 155.867 200.408 155.231 199.827C154.594 199.246 154.119 198.482 153.858 197.622C153.659 196.704 153.671 195.747 153.891 194.836C154.111 193.925 154.534 193.087 155.122 192.397C156.053 191.211 157.232 190.289 158.559 189.708C155.602 187.448 150.901 187.545 147.305 188.934C149.612 190.952 149.751 193.385 149.144 194.899C148.803 195.744 148.203 196.432 147.447 196.844C146.691 197.255 145.827 197.364 145.005 197.152C144.348 197.053 143.741 196.71 143.288 196.181C142.834 195.651 142.562 194.966 142.516 194.242C142.37 192.335 143.495 190.185 145.176 188.872C143.574 188.343 141.892 188.166 140.228 188.354C139.234 188.429 138.273 188.772 137.43 189.352C136.587 189.932 135.887 190.731 135.394 191.678L125.96 209.689C124.065 213.293 121.478 216.405 118.378 218.812C114.542 221.791 108.558 226.414 101.412 231.978C101.326 232.044 101.226 232.083 101.121 232.088ZM159.456 190.538C158.085 191.042 156.86 191.934 155.905 193.122C155.122 194.145 154.433 195.783 154.856 197.318C155.063 197.975 155.432 198.558 155.923 199.001C156.414 199.443 157.007 199.729 157.636 199.826C158.224 199.928 158.827 199.858 159.382 199.622C159.937 199.387 160.425 198.995 160.796 198.486C161.271 197.68 161.507 196.734 161.472 195.776C161.451 193.809 160.727 191.929 159.456 190.538ZM146.237 189.446C144.462 190.538 143.413 192.639 143.533 194.152C143.564 194.636 143.749 195.092 144.056 195.442C144.364 195.792 144.773 196.013 145.214 196.067C145.808 196.225 146.434 196.151 146.984 195.857C147.534 195.563 147.971 195.067 148.221 194.456C148.733 193.192 148.518 191.236 146.395 189.563C146.345 189.52 146.292 189.481 146.237 189.446Z" fill="#455A64"/>
<path d="M105.765 240.886C105.668 240.885 105.574 240.854 105.492 240.796C105.411 240.739 105.345 240.658 105.304 240.562C105.276 240.495 105.261 240.424 105.259 240.351C105.257 240.278 105.268 240.206 105.291 240.138C105.315 240.07 105.35 240.008 105.396 239.955C105.441 239.902 105.496 239.859 105.557 239.829C113.525 235.834 120.185 232.482 124.456 230.333C127.914 228.6 131.673 227.707 135.476 227.713L154.433 227.783C155.425 227.784 156.401 227.518 157.277 227.01C158.153 226.501 158.901 225.765 159.456 224.866C160.458 223.389 161.182 221.71 161.586 219.924C159.69 220.857 157.441 220.851 156 219.759C155.45 219.354 155.044 218.754 154.852 218.06C154.659 217.366 154.692 216.621 154.945 215.95C155.185 215.064 155.703 214.298 156.408 213.786C157.112 213.275 157.959 213.05 158.799 213.151C160.303 213.331 162.154 214.686 162.59 217.872C163.968 216.678 164.862 214.941 165.08 213.034C165.082 212.958 165.099 212.884 165.128 212.816C165.158 212.748 165.2 212.687 165.251 212.637C165.303 212.587 165.364 212.55 165.429 212.526C165.495 212.503 165.564 212.495 165.633 212.502C165.701 212.509 165.768 212.531 165.828 212.568C165.889 212.604 165.942 212.653 165.984 212.713C166.027 212.772 166.057 212.841 166.075 212.914C166.092 212.987 166.095 213.063 166.085 213.138C165.951 214.305 165.603 215.431 165.06 216.447C164.516 217.463 163.79 218.347 162.925 219.047L162.673 219.261C162.59 221.065 161.82 223.166 160.36 225.481C159.713 226.531 158.839 227.391 157.817 227.985C156.794 228.579 155.654 228.89 154.496 228.888L135.54 228.819H135.457C131.828 228.825 128.241 229.685 124.943 231.342C120.671 233.491 114.011 236.836 106.037 240.831C105.953 240.878 105.859 240.898 105.765 240.886ZM158.376 214.23C157.813 214.239 157.267 214.445 156.819 214.818C156.371 215.191 156.044 215.712 155.886 216.303C155.708 216.747 155.678 217.246 155.802 217.712C155.926 218.178 156.195 218.582 156.562 218.853C157.7 219.724 159.886 219.779 161.617 218.639V218.439C161.352 215.584 159.918 214.409 158.66 214.257C158.566 214.241 158.471 214.232 158.376 214.23Z" fill="#455A64"/>
<path d="M111.534 252.007C113.689 250.624 115.022 247.722 115.022 243.561C115.022 235.267 109.683 225.129 103.099 220.975C99.8066 218.902 96.8241 218.694 94.6694 220.063L89.7028 223.193C87.5481 224.576 86.2148 227.485 86.2148 231.646C86.2148 239.94 91.5605 250.078 98.1384 254.232C101.437 256.305 104.413 256.506 106.574 255.144L111.534 252.007Z" fill="#BA68C8"/>
<path d="M84.4961 233.395C84.4961 225.447 89.5954 222.226 95.8699 226.2C102.145 230.174 107.244 239.836 107.244 247.784C107.244 255.732 102.145 258.953 95.8699 254.979C89.5954 251.005 84.4961 241.343 84.4961 233.395Z" fill="#37474F"/>
<path d="M82.8279 234.784C82.8279 227.015 87.8135 223.871 93.9617 227.748C100.11 231.625 105.095 241.073 105.095 248.841C105.095 256.61 100.11 259.754 93.9617 255.87C87.8135 251.986 82.8279 242.545 82.8279 234.784Z" fill="#455A64"/>
<path d="M81.1598 236.166C81.1598 228.564 86.0253 225.509 92.0281 229.303C98.031 233.097 102.897 242.317 102.897 249.899C102.897 257.48 98.031 260.556 92.0281 256.762C86.0253 252.967 81.1598 243.748 81.1598 236.166Z" fill="#37474F"/>
<path d="M79.4853 237.555C79.4853 230.153 84.237 227.154 90.0946 230.851C95.9521 234.549 100.704 243.554 100.704 250.949C100.704 258.344 95.9521 261.351 90.0946 257.653C84.237 253.956 79.4853 244.95 79.4853 237.555Z" fill="#455A64"/>
<path d="M77.8171 238.937C77.8171 231.722 82.4488 228.799 88.161 232.406C93.8732 236.014 98.5113 244.791 98.5113 252.007C98.5113 259.222 93.8796 262.153 88.161 258.559C82.4425 254.965 77.8171 246.153 77.8171 238.937Z" fill="#37474F"/>
<path d="M76.3827 240.313C76.3827 233.353 80.8501 230.533 86.3601 234.01C91.8702 237.486 96.3376 245.952 96.3376 252.912C96.3376 259.872 91.8702 262.705 86.3917 259.208C80.9133 255.711 76.3827 247.266 76.3827 240.313Z" fill="#455A64"/>
<path d="M77.9688 243.402C77.9688 238.696 80.9702 236.774 84.7046 239.117C88.4391 241.46 91.4721 247.176 91.4847 251.882C91.4974 256.589 88.477 258.503 84.7489 256.16C81.0208 253.818 77.9814 248.102 77.9688 243.402Z" fill="#263238"/>
<path d="M87.6934 257.176L86.9162 255.711C87.4162 254.824 87.6626 253.794 87.6239 252.753C87.6239 248.924 85.1469 244.28 82.1076 242.386C81.3038 241.831 80.3657 241.554 79.4158 241.591L78.6385 240.133L77.0968 243.354C76.7696 244.141 76.6098 244.998 76.6292 245.863C76.6292 249.691 79.1061 254.336 82.1455 256.23C82.8199 256.681 83.5817 256.953 84.3697 257.024L87.6934 257.176Z" fill="#263238"/>
<path d="M77.0652 247.425C77.0652 244.625 78.8471 243.492 81.065 244.881C82.2367 245.711 83.2123 246.833 83.9118 248.154C84.6114 249.475 85.0152 250.959 85.0901 252.484C85.0901 255.283 83.3081 256.416 81.0902 255.027C79.9185 254.197 78.9429 253.076 78.2434 251.754C77.5438 250.433 77.1401 248.949 77.0652 247.425Z" fill="#37474F"/>
</svg>
